<svg xmlns="http://www.w3.org/2000/svg" width="1200" height="700" viewBox="0 0 1200 700" fill="none">
  <rect width="1200" height="700" fill="#111827"/>
  <rect x="50" y="50" width="1100" height="600" rx="18" fill="#0B1220" stroke="#374151"/>
  <rect x="90" y="90" width="220" height="40" rx="10" fill="#2563EB"/>
  <rect x="330" y="90" width="160" height="40" rx="10" fill="#334155"/>
  <rect x="510" y="90" width="160" height="40" rx="10" fill="#334155"/>
  <rect x="90" y="160" width="730" height="220" rx="14" fill="#1E293B"/>
  <circle cx="180" cy="270" r="56" fill="#0EA5E9"/>
  <rect x="270" y="215" width="460" height="20" rx="10" fill="#475569"/>
  <rect x="270" y="245" width="360" height="14" rx="7" fill="#334155"/>
  <rect x="270" y="270" width="410" height="14" rx="7" fill="#334155"/>
  <rect x="270" y="295" width="280" height="14" rx="7" fill="#334155"/>
  <rect x="850" y="160" width="270" height="450" rx="14" fill="#1F2937"/>
  <rect x="885" y="200" width="200" height="12" rx="6" fill="#475569"/>
  <rect x="885" y="225" width="140" height="10" rx="5" fill="#334155"/>
  <rect x="885" y="270" width="200" height="90" rx="10" fill="#111827"/>
  <rect x="885" y="380" width="200" height="90" rx="10" fill="#111827"/>
  <rect x="90" y="410" width="730" height="200" rx="14" fill="#1F2937"/>
  <rect x="120" y="445" width="670" height="14" rx="7" fill="#334155"/>
  <rect x="120" y="472" width="620" height="14" rx="7" fill="#334155"/>
  <rect x="120" y="499" width="540" height="14" rx="7" fill="#334155"/>
</svg>
