<svg xmlns="http://www.w3.org/2000/svg" width="1200" height="700" viewBox="0 0 1200 700" fill="none">
  <defs>
    <linearGradient id="g" x1="0" y1="0" x2="1200" y2="700" gradientUnits="userSpaceOnUse">
      <stop stop-color="#0F172A"/>
      <stop offset="1" stop-color="#1E3A8A"/>
    </linearGradient>
  </defs>
  <rect width="1200" height="700" fill="url(#g)"/>
  <rect x="70" y="70" width="1060" height="560" rx="20" fill="#0B1220" fill-opacity="0.82" stroke="#475569"/>
  <rect x="110" y="120" width="520" height="30" rx="15" fill="#3B82F6"/>
  <rect x="110" y="170" width="760" height="16" rx="8" fill="#475569"/>
  <rect x="110" y="202" width="620" height="16" rx="8" fill="#334155"/>
  <rect x="110" y="250" width="320" height="320" rx="14" fill="#1D4ED8"/>
  <rect x="450" y="250" width="320" height="320" rx="14" fill="#0EA5E9"/>
  <rect x="790" y="250" width="300" height="150" rx="14" fill="#1F2937"/>
  <rect x="820" y="285" width="240" height="12" rx="6" fill="#475569"/>
  <rect x="820" y="310" width="210" height="10" rx="5" fill="#334155"/>
  <rect x="790" y="420" width="300" height="150" rx="14" fill="#1F2937"/>
  <rect x="820" y="455" width="240" height="12" rx="6" fill="#475569"/>
  <rect x="820" y="480" width="210" height="10" rx="5" fill="#334155"/>
</svg>
