<svg xmlns="http://www.w3.org/2000/svg" width="1200" height="700" viewBox="0 0 1200 700" fill="none">
  <rect width="1200" height="700" fill="#0F172A"/>
  <rect x="40" y="40" width="1120" height="620" rx="16" fill="#111827" stroke="#334155"/>
  <rect x="80" y="90" width="380" height="18" rx="9" fill="#475569"/>
  <rect x="80" y="130" width="640" height="14" rx="7" fill="#334155"/>
  <rect x="80" y="175" width="250" height="160" rx="12" fill="#1D4ED8"/>
  <rect x="350" y="175" width="250" height="160" rx="12" fill="#0EA5E9"/>
  <rect x="620" y="175" width="250" height="160" rx="12" fill="#22C55E"/>
  <rect x="80" y="370" width="790" height="20" rx="10" fill="#334155"/>
  <rect x="80" y="410" width="700" height="14" rx="7" fill="#334155"/>
  <rect x="80" y="440" width="620" height="14" rx="7" fill="#334155"/>
  <rect x="900" y="175" width="220" height="280" rx="12" fill="#1E293B"/>
  <rect x="930" y="210" width="160" height="12" rx="6" fill="#475569"/>
  <rect x="930" y="235" width="120" height="12" rx="6" fill="#334155"/>
  <rect x="930" y="270" width="160" height="8" rx="4" fill="#334155"/>
  <rect x="930" y="290" width="145" height="8" rx="4" fill="#334155"/>
  <rect x="930" y="310" width="130" height="8" rx="4" fill="#334155"/>
</svg>
